<mxfile host="Electron" modified="2024-01-03T04:19:29.219Z" agent="Mozilla/5.0 (Windows NT 10.0; Win64; x64) AppleWebKit/537.36 (KHTML, like Gecko) draw.io/22.1.11 Chrome/114.0.5735.289 Electron/25.9.8 Safari/537.36" etag="-oyLwtS0bt941dhiFmxO" version="22.1.11" type="device">
  <diagram name="Page-1" id="kad3HA2m_N0xGXLA_Eiy">
    <mxGraphModel dx="1313" dy="776" grid="1" gridSize="10" guides="1" tooltips="1" connect="1" arrows="1" fold="1" page="1" pageScale="1" pageWidth="850" pageHeight="1100" math="0" shadow="0">
      <root>
        <mxCell id="0" />
        <mxCell id="1" parent="0" />
        <mxCell id="V1Yf__wxMSNTFknZuQKj-1" value="User" style="shape=umlActor;verticalLabelPosition=bottom;verticalAlign=top;html=1;outlineConnect=0;" vertex="1" parent="1">
          <mxGeometry x="90" y="170" width="30" height="60" as="geometry" />
        </mxCell>
        <mxCell id="V1Yf__wxMSNTFknZuQKj-2" value="User Device" style="rounded=0;whiteSpace=wrap;html=1;" vertex="1" parent="1">
          <mxGeometry x="260" y="170" width="110" height="60" as="geometry" />
        </mxCell>
        <mxCell id="V1Yf__wxMSNTFknZuQKj-3" value="" style="endArrow=classic;html=1;rounded=0;exitX=0.5;exitY=0.5;exitDx=0;exitDy=0;exitPerimeter=0;entryX=0;entryY=0.5;entryDx=0;entryDy=0;" edge="1" parent="1" source="V1Yf__wxMSNTFknZuQKj-1" target="V1Yf__wxMSNTFknZuQKj-2">
          <mxGeometry width="50" height="50" relative="1" as="geometry">
            <mxPoint x="180" y="250" as="sourcePoint" />
            <mxPoint x="230" y="200" as="targetPoint" />
          </mxGeometry>
        </mxCell>
        <mxCell id="V1Yf__wxMSNTFknZuQKj-4" value="" style="endArrow=classic;html=1;rounded=0;exitX=1;exitY=0.5;exitDx=0;exitDy=0;entryX=0.002;entryY=0.41;entryDx=0;entryDy=0;entryPerimeter=0;" edge="1" parent="1" source="V1Yf__wxMSNTFknZuQKj-2" target="V1Yf__wxMSNTFknZuQKj-5">
          <mxGeometry width="50" height="50" relative="1" as="geometry">
            <mxPoint x="460" y="200" as="sourcePoint" />
            <mxPoint x="550" y="200" as="targetPoint" />
          </mxGeometry>
        </mxCell>
        <mxCell id="V1Yf__wxMSNTFknZuQKj-5" value="" style="swimlane;startSize=0;" vertex="1" parent="1">
          <mxGeometry x="460" width="200" height="490" as="geometry" />
        </mxCell>
        <mxCell id="V1Yf__wxMSNTFknZuQKj-6" value="Presentation layer" style="rounded=0;whiteSpace=wrap;html=1;" vertex="1" parent="V1Yf__wxMSNTFknZuQKj-5">
          <mxGeometry x="50" y="60" width="120" height="60" as="geometry" />
        </mxCell>
        <mxCell id="V1Yf__wxMSNTFknZuQKj-12" value="HTML" style="rounded=0;whiteSpace=wrap;html=1;" vertex="1" parent="V1Yf__wxMSNTFknZuQKj-5">
          <mxGeometry x="50" y="170" width="120" height="60" as="geometry" />
        </mxCell>
        <mxCell id="V1Yf__wxMSNTFknZuQKj-13" value="CSS" style="rounded=0;whiteSpace=wrap;html=1;" vertex="1" parent="V1Yf__wxMSNTFknZuQKj-5">
          <mxGeometry x="50" y="280" width="120" height="60" as="geometry" />
        </mxCell>
        <mxCell id="V1Yf__wxMSNTFknZuQKj-11" value="User Interface" style="text;html=1;align=center;verticalAlign=middle;resizable=0;points=[];autosize=1;strokeColor=none;fillColor=none;" vertex="1" parent="V1Yf__wxMSNTFknZuQKj-5">
          <mxGeometry x="60" y="8" width="100" height="30" as="geometry" />
        </mxCell>
        <mxCell id="V1Yf__wxMSNTFknZuQKj-14" value="Javascript" style="rounded=0;whiteSpace=wrap;html=1;" vertex="1" parent="V1Yf__wxMSNTFknZuQKj-5">
          <mxGeometry x="50" y="380" width="120" height="60" as="geometry" />
        </mxCell>
        <mxCell id="V1Yf__wxMSNTFknZuQKj-15" value="" style="endArrow=classic;html=1;rounded=0;exitX=1.01;exitY=0.41;exitDx=0;exitDy=0;entryX=0;entryY=0.5;entryDx=0;entryDy=0;exitPerimeter=0;" edge="1" parent="1" source="V1Yf__wxMSNTFknZuQKj-5" target="V1Yf__wxMSNTFknZuQKj-16">
          <mxGeometry width="50" height="50" relative="1" as="geometry">
            <mxPoint x="750" y="199.5" as="sourcePoint" />
            <mxPoint x="840" y="200.5" as="targetPoint" />
          </mxGeometry>
        </mxCell>
        <mxCell id="V1Yf__wxMSNTFknZuQKj-16" value="" style="swimlane;startSize=0;" vertex="1" parent="1">
          <mxGeometry x="840" y="5" width="200" height="390" as="geometry" />
        </mxCell>
        <mxCell id="V1Yf__wxMSNTFknZuQKj-17" value="Python (Django) backend" style="rounded=0;whiteSpace=wrap;html=1;" vertex="1" parent="V1Yf__wxMSNTFknZuQKj-16">
          <mxGeometry x="50" y="60" width="120" height="60" as="geometry" />
        </mxCell>
        <mxCell id="V1Yf__wxMSNTFknZuQKj-18" value="Machine Learning with Pytorch" style="rounded=0;whiteSpace=wrap;html=1;" vertex="1" parent="V1Yf__wxMSNTFknZuQKj-16">
          <mxGeometry x="50" y="170" width="120" height="60" as="geometry" />
        </mxCell>
        <mxCell id="V1Yf__wxMSNTFknZuQKj-19" value="Data Analytics with numpy, pandas, etc" style="rounded=0;whiteSpace=wrap;html=1;" vertex="1" parent="V1Yf__wxMSNTFknZuQKj-16">
          <mxGeometry x="50" y="280" width="120" height="60" as="geometry" />
        </mxCell>
        <mxCell id="V1Yf__wxMSNTFknZuQKj-20" value="Application Logic" style="text;html=1;align=center;verticalAlign=middle;resizable=0;points=[];autosize=1;strokeColor=none;fillColor=none;" vertex="1" parent="V1Yf__wxMSNTFknZuQKj-16">
          <mxGeometry x="55" y="8" width="110" height="30" as="geometry" />
        </mxCell>
        <mxCell id="V1Yf__wxMSNTFknZuQKj-28" value="" style="endArrow=classic;html=1;rounded=0;exitX=0.5;exitY=1;exitDx=0;exitDy=0;" edge="1" parent="1" source="V1Yf__wxMSNTFknZuQKj-16" target="V1Yf__wxMSNTFknZuQKj-31">
          <mxGeometry width="50" height="50" relative="1" as="geometry">
            <mxPoint x="970" y="480" as="sourcePoint" />
            <mxPoint x="1000" y="450" as="targetPoint" />
          </mxGeometry>
        </mxCell>
        <mxCell id="V1Yf__wxMSNTFknZuQKj-29" value="" style="endArrow=classic;html=1;rounded=0;exitX=0.5;exitY=1;exitDx=0;exitDy=0;" edge="1" parent="1" source="V1Yf__wxMSNTFknZuQKj-16" target="V1Yf__wxMSNTFknZuQKj-30">
          <mxGeometry width="50" height="50" relative="1" as="geometry">
            <mxPoint x="890" y="430" as="sourcePoint" />
            <mxPoint x="880" y="450" as="targetPoint" />
          </mxGeometry>
        </mxCell>
        <mxCell id="V1Yf__wxMSNTFknZuQKj-30" value="Database" style="shape=cylinder3;whiteSpace=wrap;html=1;boundedLbl=1;backgroundOutline=1;size=15;" vertex="1" parent="1">
          <mxGeometry x="830" y="450" width="60" height="80" as="geometry" />
        </mxCell>
        <mxCell id="V1Yf__wxMSNTFknZuQKj-31" value="File System" style="shape=cylinder3;whiteSpace=wrap;html=1;boundedLbl=1;backgroundOutline=1;size=15;" vertex="1" parent="1">
          <mxGeometry x="990" y="450" width="60" height="80" as="geometry" />
        </mxCell>
      </root>
    </mxGraphModel>
  </diagram>
</mxfile>
